<?xml version="1.0" encoding="utf-8"?>
<!-- Generator: Adobe Illustrator 26.3.1, SVG Export Plug-In . SVG Version: 6.00 Build 0)  -->
<svg version="1.1" id="Layer_1" xmlns="http://www.w3.org/2000/svg" xmlns:xlink="http://www.w3.org/1999/xlink" x="0px" y="0px"
	 viewBox="0 0 2166.7 333.3" style="enable-background:new 0 0 2166.7 333.3;" xml:space="preserve">
<style type="text/css">
	.st0{fill:none;}
</style>
<path class="st0" d="M-166.7-166.7h2500V500h-2500V-166.7z"/>
<path d="M0,242.7V219h83.2v30.2c-0.2,15.3,12,28,27.3,28.2c1.3,0,2.5,0,3.8-0.2c14,1.9,27-7.2,30.1-21c2.2-7.6,2-15.7-0.5-23.2
	c-16.1-40.5-126.1-58.8-140.1-122C0.9,97.2,0.7,83,3.2,69C11.8,18.3,56.4,0,111.6,0c44,0,104.7,10.2,104.7,78.2v22.1H139V80.9
	c0.9-14.6-10.3-27.2-24.9-28.1c-1.4-0.1-2.7-0.1-4.1,0.1c-13.5-1.5-25.9,7.7-28.4,21c-0.9,5.4-0.7,10.9,0.5,16.2
	c9.1,36.1,126.7,55.6,139.6,120.8c3.2,16.9,3.4,34.3,0.5,51.2c-7.5,51.8-53.7,71.2-109.5,71.2C54.2,333.3,0,312.3,0,242.7z
	 M1008.2,241.7v-23.7h82.1v29.7c-0.5,15.1,11.3,27.7,26.4,28.2c1.4,0,2.7,0,4.1-0.2c13.8,2.1,26.9-6.9,30.1-20.5
	c2.2-7.4,2-15.4-0.5-22.7c-15.6-39.9-124.6-58.3-138.5-121.4c-2.9-13.7-3-27.8-0.5-41.5c8.6-50.1,53.3-68.5,107.4-68.5
	c43.5,0,103.6,10.8,103.6,77.7v21.6h-76.8V81.5c0.9-14.6-10.1-27.1-24.7-28.1c-1.3-0.1-2.5-0.1-3.8,0c-13.3-1.8-25.6,7.3-27.9,20.5
	c-0.9,5.4-0.7,10.9,0.5,16.2c8.6,36.1,125,55,138,119.7c3.2,16.7,3.4,33.9,0.5,50.7c-7.5,51.8-53.1,70.7-108.3,70.7
	C1061.9,331.3,1008.2,310.1,1008.2,241.7L1008.2,241.7z M1302.4,253c-0.7-6.8-0.9-13.7-0.5-20.5V9.2h78.4v230.3
	c-0.1,4,0.1,7.9,0.5,11.9c4.4,16.3,21.2,26,37.5,21.6c10.5-2.8,18.7-11.1,21.6-21.6c0.5-3.9,0.6-7.9,0.5-11.9V9.2h78.4v223.3
	c0,5.9-0.5,17.3-0.5,20.5c-5.4,58.3-51,77.1-107.9,77.1S1307.7,311.2,1302.4,253L1302.4,253z M1947.6,249.8
	c-0.8-6.8-1.2-13.7-1.1-20.6v-131c0-5.4,0.5-15.1,1.1-20.5c7-58.2,53.7-76.6,109-76.6c54.8,0,103.1,18.3,108.5,76.6
	c0.6,6.8,0.8,13.7,0.5,20.5v10.1h-78.4V91.2c0-4-0.3-8-1.1-11.9c-5.3-17.1-23.5-26.5-40.5-21.2c-10.1,3.2-18,11.1-21.2,21.2
	c-0.9,4.8-1.3,9.7-1.1,14.6v142.4c-0.1,4,0.1,7.9,0.5,11.9c3.8,14.6,17.7,24.2,32.7,22.7c14.8,1.6,28.4-8.2,31.7-22.6
	c0.7-3.9,0.9-7.9,0.5-11.9v-45.4h-31.7v-45.3h109.5v83.5c0.1,6.8-0.3,13.7-1.1,20.5c-5.4,56.6-54.2,76.6-109,76.6
	C2001.8,326.2,1953,306.4,1947.6,249.8L1947.6,249.8z M855.2,320.4l-2.1-288l-53.8,288H721l-53.2-288l-2.1,288h-77.4l6.4-310.7H721
	l39.2,242.7L799.4,9.7h126.1l7,310.7L855.2,320.4z M442.9,320.4L401,32.4l-43,288h-83.7L331.2,9.7h138l56.9,310.7H442.9z
	 M1754.9,317.1l-77.8-258.4l4.3,258.3h-76.3V9.7H1720l72.9,250.3l-4.2-250.3h76.8v307.5L1754.9,317.1z"/>
</svg>
